<svg width="240" height="240" viewBox="0 0 240 240" fill="none" xmlns="http://www.w3.org/2000/svg">
<path fill-rule="evenodd" clip-rule="evenodd" d="M0 0H15V225H240V240H0V0ZM150 52.5C150 50.5109 150.79 48.6032 152.197 47.1967C153.603 45.7902 155.511 45 157.5 45H217.5C219.489 45 221.397 45.7902 222.803 47.1967C224.21 48.6032 225 50.5109 225 52.5V112.5C225 114.489 224.21 116.397 222.803 117.803C221.397 119.21 219.489 120 217.5 120C215.511 120 213.603 119.21 212.197 117.803C210.79 116.397 210 114.489 210 112.5V73.5L155.805 139.755C155.142 140.565 154.316 141.227 153.381 141.698C152.447 142.17 151.424 142.44 150.378 142.493C149.332 142.545 148.288 142.378 147.311 142.002C146.333 141.626 145.446 141.05 144.705 140.31L105.9 101.505L51.06 176.91C49.8603 178.435 48.1161 179.437 46.1938 179.703C44.2714 179.969 42.3207 179.48 40.7516 178.338C39.1824 177.196 38.117 175.49 37.7792 173.579C37.4413 171.668 37.8574 169.701 38.94 168.09L98.94 85.59C99.5769 84.7127 100.396 83.9839 101.342 83.4538C102.288 82.9237 103.337 82.6049 104.418 82.5194C105.498 82.4338 106.585 82.5836 107.602 82.9583C108.619 83.333 109.543 83.9238 110.31 84.69L149.445 123.84L201.675 60H157.5C155.511 60 153.603 59.2098 152.197 57.8033C150.79 56.3968 150 54.4891 150 52.5Z" fill="#81D0E6"/>
</svg>
