<svg width="685" height="783" viewBox="0 0 685 783" fill="none" xmlns="http://www.w3.org/2000/svg">
<path d="M497.542 442.273L342.5 597.343L187.458 442.273C82.567 451.601 0 538.618 0 645.975V709.594C0 750.12 32.8739 783 73.3929 783H611.607C652.126 783 685 750.12 685 709.594V645.975C685 538.618 602.433 451.601 497.542 442.273ZM48.9286 293.625C90.6708 293.625 128.132 276.038 154.737 248.205C177.825 330.634 252.594 391.5 342.5 391.5C450.602 391.5 538.214 303.871 538.214 195.75C538.214 87.6287 450.602 0 342.5 0C265.437 0 199.384 44.9613 167.427 109.804C140.823 73.1004 97.8571 48.9375 48.9286 48.9375C48.9286 100.016 75.0748 144.977 114.829 171.281C75.0748 197.585 48.9286 242.546 48.9286 293.625V293.625ZM269.107 146.812H415.893C442.956 146.812 464.821 168.681 464.821 195.75H220.179C220.179 168.681 242.044 146.812 269.107 146.812Z" fill="#121446" fill-opacity="0.2"/>
</svg>
