<?xml version="1.0" encoding="utf-8"?>
<!-- Generator: Adobe Illustrator 26.0.1, SVG Export Plug-In . SVG Version: 6.00 Build 0)  -->
<svg version="1.1" id="Layer_1" xmlns="http://www.w3.org/2000/svg" xmlns:xlink="http://www.w3.org/1999/xlink" x="0px" y="0px"
	 viewBox="0 0 1423.9 2007.5" style="enable-background:new 0 0 1423.9 2007.5;" xml:space="preserve">
<style type="text/css">
	.st0{fill:#121446;fill-opacity:0.2;}
</style>
<path class="st0" d="M1035.8,920.7L713,1243.5L390.2,920.7C171.9,940.1,0,1121.3,0,1344.8v132.4c0,84.4,68.4,152.8,152.8,152.8
	h1120.4c84.4,0,152.8-68.4,152.8-152.8v-132.4C1426,1121.3,1254.1,940.1,1035.8,920.7z M101.9,611.2c86.9,0,164.9-36.6,220.3-94.6
	C370.2,688.3,525.8,815,713,815c225,0,407.4-182.4,407.4-407.5S938,0,713,0C552.6,0,415.1,93.6,348.5,228.6
	c-55.4-76.4-144.8-126.7-246.7-126.7c0,106.3,54.4,199.9,137.2,254.7C156.3,411.3,101.9,504.9,101.9,611.2z M560.2,305.6h305.6
	c56.3,0,101.9,45.5,101.9,101.9H458.4C458.4,351.1,503.9,305.6,560.2,305.6z"/>
</svg>
