<svg width="434" height="240" viewBox="0 0 434 240" fill="none" xmlns="http://www.w3.org/2000/svg">
<g clip-path="url(#clip0_11_307)">
<path d="M351.5 0C305.9 0 269 13.2 269 30V60C224 61.5 194 74.1 194 90V180C194 196.35 230.9 210 276.5 210H277.505C288.485 210 299.255 209.175 309.8 207.6C320.27 227.175 341.21 239.97 365.15 239.97C379.537 239.969 393.525 235.248 404.971 226.531C416.416 217.815 424.685 205.584 428.51 191.715C431.645 188.73 433.67 185.085 434.015 180.96V30C434.015 13.2 397.115 0 351.515 0H351.5ZM276.5 75C314 75 344 81.75 344 90C344 98.25 314 105 276.5 105C239 105 209 98.25 209 90C209 81.75 239 75 276.5 75ZM276.5 195C235.85 195 212.75 184.35 209 180V168C230.435 176.997 253.61 181.091 276.83 179.985C284.45 179.97 292.28 179.535 299.99 178.71C299.345 184.275 300.32 189.39 301.835 194.265C295.055 194.58 287.33 195.03 279.515 195.03L276.35 195H276.5ZM300.05 163.65C293.045 164.505 284.93 165 276.71 165H276.5C235.865 165 212.765 154.35 209.015 150V137.4C230.384 146.596 253.538 150.901 276.785 150C286.302 149.983 295.807 149.342 305.24 148.08C302.285 152.67 300.875 157.89 300.11 163.305L300.05 163.65ZM276.5 135C235.85 135 212.75 124.35 209 120V106.5C230.369 115.696 253.523 120.001 276.77 119.1C300.206 119.882 323.524 115.445 345.035 106.11L344.015 111.6C332.755 115.387 322.727 122.145 314.99 131.16C303.71 133.635 290.825 135 277.625 135H276.47H276.5ZM365.15 225C351.584 225 338.574 219.611 328.981 210.019C319.389 200.426 314 187.416 314 173.85C314 160.284 319.389 147.274 328.981 137.681C338.574 128.089 351.584 122.7 365.15 122.7C378.716 122.7 391.726 128.089 401.319 137.681C410.911 147.274 416.3 160.284 416.3 173.85C416.3 187.416 410.911 200.426 401.319 210.019C391.726 219.611 378.716 225 365.15 225ZM419 120C416.375 122.505 413.225 124.5 409.745 125.79C405.425 122.13 400.745 118.89 395.675 116.28C403.958 114.135 411.973 111.065 419.57 107.13L419 120ZM419 90C415.4 94.65 394.85 104.1 359 105V90H359.165C380.105 90.0314 400.817 85.662 419.96 77.175L419 90ZM419 60C415.25 64.95 392.15 75 351.5 75H348.05C328.703 65.0761 307.259 59.9326 285.515 60H284V46.5C305.369 55.6959 328.523 60.0008 351.77 59.1C375.206 59.8822 398.524 55.4452 420.035 46.11L419.015 60H419ZM351.5 45C314 45 284 38.25 284 30C284 21.75 314 15 351.5 15C389 15 419 21.75 419 30C419 38.25 389 45 351.5 45Z" fill="#80CDE6"/>
<path d="M351.5 165H359V210H374V135H366.5L351.5 165Z" fill="#80CDE6"/>
</g>
<path d="M100.542 143.208H68.7917V111.458H58.2083V143.208H26.4583V153.792H58.2083V185.542H68.7917V153.792H100.542V143.208Z" fill="#747BEC"/>
<path d="M184.542 143.208H152.792V111.458H142.208V143.208H110.458V153.792H142.208V185.542H152.792V153.792H184.542V143.208Z" fill="#747BEC"/>
<defs>
<clipPath id="clip0_11_307">
<rect width="240" height="240" fill="white" transform="translate(194)"/>
</clipPath>
</defs>
</svg>
