<svg width="52" height="52" viewBox="0 0 52 52" fill="none" xmlns="http://www.w3.org/2000/svg">
<path d="M52 26C52 32.8956 49.2607 39.5088 44.3848 44.3848C39.5088 49.2607 32.8956 52 26 52C19.1044 52 12.4912 49.2607 7.61522 44.3848C2.73928 39.5088 0 32.8956 0 26C0 19.1044 2.73928 12.4912 7.61522 7.61522C12.4912 2.73928 19.1044 0 26 0C32.8956 0 39.5088 2.73928 44.3848 7.61522C49.2607 12.4912 52 19.1044 52 26ZM26.9327 19.1945C24.4042 20.2475 19.3472 22.425 11.7683 25.727C10.5398 26.2145 9.893 26.6955 9.8345 27.1635C9.737 27.9532 10.7283 28.2653 12.077 28.691L12.6458 28.8698C13.9718 29.302 15.7592 29.8057 16.6855 29.8253C17.5305 29.8447 18.4697 29.5003 19.5065 28.7853C26.5882 24.0045 30.2445 21.5898 30.472 21.5378C30.6345 21.4987 30.862 21.4533 31.0115 21.5898C31.1642 21.723 31.148 21.9797 31.1318 22.048C31.0343 22.4672 27.144 26.0812 25.1322 27.9532C24.505 28.5382 24.0597 28.951 23.9688 29.0452C23.7684 29.25 23.5647 29.4516 23.3577 29.6497C22.1227 30.8393 21.1998 31.7298 23.4065 33.1858C24.4692 33.8878 25.3207 34.463 26.169 35.0415C27.092 35.672 28.015 36.2993 29.211 37.0858C29.5133 37.2808 29.8058 37.492 30.0885 37.6935C31.1643 38.4605 32.136 39.1495 33.3288 39.039C34.0243 38.974 34.7425 38.324 35.1065 36.374C35.9678 31.7688 37.661 21.7945 38.051 17.6833C38.0748 17.3415 38.0606 16.9981 38.0088 16.6595C37.9782 16.3862 37.8459 16.1345 37.6383 15.9542C37.3425 15.7501 36.99 15.6444 36.6307 15.652C35.6558 15.6683 34.151 16.1915 26.9327 19.1945Z" fill="#81D0E6"/>
</svg>
