<svg id="Layer_1" data-name="Layer 1" xmlns="http://www.w3.org/2000/svg" xmlns:xlink="http://www.w3.org/1999/xlink" viewBox="0 0 503.56 512"><defs><style>.cls-1{fill:#7260ee;}.cls-2{fill:url(#linear-gradient);}.cls-3{stroke:#000;}.cls-3,.cls-5{stroke-miterlimit:10;}.cls-4{fill:#85cde7;fill-rule:evenodd;}.cls-5{fill:none;stroke:#736eef;stroke-width:7px;}</style><linearGradient id="linear-gradient" x1="507.78" y1="256" x2="4.22" y2="256" gradientUnits="userSpaceOnUse"><stop offset="0.03" stop-color="#7268ee"/><stop offset="1" stop-color="#81d0e6"/></linearGradient></defs><path class="cls-1" d="M331.84,212a7.92,7.92,0,0,0-11.14-1.19,20.67,20.67,0,0,1-25.95,0,7.91,7.91,0,1,0-9.94,12.32,36.5,36.5,0,0,0,45.83,0A7.91,7.91,0,0,0,331.84,212Z" transform="translate(-4.22)"/><path class="cls-1" d="M356.29,175.24H351a7.92,7.92,0,0,0,0,15.84h5.28a7.92,7.92,0,0,0,0-15.84Z" transform="translate(-4.22)"/><path class="cls-1" d="M264.45,175.24h-5.28a7.92,7.92,0,0,0,0,15.84h5.28a7.92,7.92,0,0,0,0-15.84Z" transform="translate(-4.22)"/><path class="cls-2" d="M151.21,284H223.8V449.72H79.7a7.92,7.92,0,0,0,0,15.83h94.56l-.08,38.52A8,8,0,0,0,182.1,512H366.85a7.92,7.92,0,0,0,0-15.83H190l.06-30.62H426.49v30.62H409.07a7.92,7.92,0,1,0,0,15.83h25.34a7.91,7.91,0,0,0,7.91-7.91V444.44H484a23.79,23.79,0,0,0,23.76-23.75V361.57A23.79,23.79,0,0,0,484,337.81h-9V322a54.38,54.38,0,0,0-4.34-101.43,8,8,0,0,0-10.44,7.5v42.46H446.55V228.1a8,8,0,0,0-10.44-7.5,54.28,54.28,0,0,0-36.91,47.54H342.62a118.16,118.16,0,0,0,59.66-42.4,8.38,8.38,0,0,0,1-1.33,118.57,118.57,0,0,0,10.28-17.14A29,29,0,1,0,426,152h-.59c0-.36,0-.71,0-1.07h13.3a7.92,7.92,0,0,0,7.92-7.92V121.93a7.93,7.93,0,0,0-7.92-7.92h-15A118.3,118.3,0,0,0,336.76,20.5V7.92A7.92,7.92,0,0,0,328.84,0H286.61a7.91,7.91,0,0,0-7.91,7.92V20.51A118.26,118.26,0,0,0,191.84,114h-15a7.92,7.92,0,0,0-7.91,7.92V143a7.91,7.91,0,0,0,7.91,7.92h13.3c0,.36,0,.72,0,1.07h-.59a29,29,0,1,0,12.44,55.25,118,118,0,0,0,10.27,17.14,9.05,9.05,0,0,0,1,1.33,118.19,118.19,0,0,0,59.67,42.4H152.23m-62,48.56H39.59a7.92,7.92,0,0,0-7.92,7.92v35.89a7.91,7.91,0,0,0,7.92,7.92H164.68v24.28H105a7.93,7.93,0,0,0-7.92,7.92v29.56a7.92,7.92,0,1,0,15.84,0V408.55H172.6a7.92,7.92,0,0,0,7.92-7.92V360.51a7.91,7.91,0,0,0-7.92-7.91H47.51V332.54H204.27a7.92,7.92,0,0,0,0-15.84H119.84m-62-48.56H12.14a7.93,7.93,0,0,0-7.92,7.92V457.63a7.92,7.92,0,0,0,7.92,7.92H37.48a7.92,7.92,0,0,0,0-15.83H20.06V284H57.47m373.24-43v37.48a7.92,7.92,0,0,0,7.92,7.92h29.56a7.92,7.92,0,0,0,7.92-7.92V241a38.55,38.55,0,0,1-11.31,68,7.92,7.92,0,0,0-5.58,7.57v21.29H447.6V316.53A7.92,7.92,0,0,0,442,309a38.55,38.55,0,0,1-11.31-68Zm-79.13,43h48.75a53.89,53.89,0,0,0,25.14,34.83H324.15Zm-43.85,30.09L284,284h47.38Zm96.59-126V156.18c1.75-.68,3.5-1.37,5.24-2.09,0,.54,0,1.08,0,1.62A101.52,101.52,0,0,1,404.32,188.1ZM426,167.85a13.2,13.2,0,1,1,0,26.39,13.08,13.08,0,0,1-6.44-1.68,116.5,116.5,0,0,0,5.28-24.65C425.19,167.88,425.57,167.85,426,167.85Zm-131.43-152h26.39V48a7.92,7.92,0,0,0,15.84,0V36.92A102.45,102.45,0,0,1,407.51,114H336.76V81.81a7.92,7.92,0,0,0-15.84,0V114H294.53ZM278.7,36.92V114H208A102.45,102.45,0,0,1,278.7,36.92ZM189.49,194.24a13.2,13.2,0,0,1,0-26.39c.39,0,.78,0,1.16.06a117.12,117.12,0,0,0,5.28,24.65A13.05,13.05,0,0,1,189.49,194.24Zm21.64-6.14a101.52,101.52,0,0,1-5.27-32.39c0-.54,0-1.08,0-1.62,1.74.72,3.49,1.41,5.24,2.09Zm-26.39-53v-5.28h246v5.28ZM368.48,151a251.48,251.48,0,0,1-60.75,7.39A251.63,251.63,0,0,1,247,151ZM227,217.73V161.78a266.31,266.31,0,0,0,80.76,12.4,266.36,266.36,0,0,0,80.76-12.4v55.95a101.76,101.76,0,0,1-161.52,0ZM239.64,284h24.24l27.42,34.83H239.64V284Zm0,50.67H431.77v3.16h-2.64a23.78,23.78,0,0,0-23.75,23.76v1.58H239.64v-28.5Zm0,44.34H405.38v26.39H239.64V379Zm186.85,70.72H239.64v-28.5H405.39a23.78,23.78,0,0,0,21.1,23.08Zm65.45-29A7.93,7.93,0,0,1,484,428.6H429.13a7.92,7.92,0,0,1-7.89-7.39h17.39a7.92,7.92,0,1,0,0-15.83H421.21V400.1h17.42a7.92,7.92,0,1,0,0-15.84H421.21V379h17.42a7.92,7.92,0,1,0,0-15.83H421.21v-1.59a7.92,7.92,0,0,1,7.92-7.91H484a7.92,7.92,0,0,1,7.92,7.91v59.12Z" transform="translate(-4.22)"/><path class="cls-3" d="M105,284" transform="translate(-4.22)"/><path class="cls-4" d="M122.24,289.12c0-7.87-6.3-14.41-14-15.7V257.7c2.34.72,4.76.9,5.74,3.11a3.64,3.64,0,0,0,5,1.9,4.11,4.11,0,0,0,1.79-5.31c-2.2-4.95-7.16-6.93-12.43-7.83v-9.65h-4.56v9.6a15.82,15.82,0,0,0,0,31.41v15.84c-2.49-.69-4.8-.92-5.82-3.23a3.62,3.62,0,0,0-5-1.91,4.1,4.1,0,0,0-1.8,5.29c2.24,5.07,7.22,7.11,12.65,7.95v9.35h4.36v-9.39c7.64-1.26,14-7.82,14-15.71Zm-24.89-23.9c0-3.59,2.77-6.61,6.56-7.58v15.18c-3.79-1-6.56-4-6.56-7.6Zm10.88,31.46V281.57c3.78,1,6.55,4,6.55,7.55s-2.77,6.51-6.55,7.56Z" transform="translate(-4.22)"/><circle class="cls-5" cx="101.83" cy="277.07" r="47.57"/></svg>